<svg xmlns="http://www.w3.org/2000/svg" viewBox="0 0 48 48" id="dairy">
  <path d="M24.6 26.621a3 3 0 1 0 3 3 3 3 0 0 0-3-3Zm0 4.994a2 2 0 1 1 2-2 2 2 0 0 1-2 2ZM16.879 35.6a.5.5 0 1 1-.5-.5.5.5 0 0 1 .5.5Zm-4.043-10.642a.5.5 0 1 1-.5-.5.5.5 0 0 1 .5.5Zm-2.091 8.913a1.288 1.288 0 1 0 1.289 1.288 1.29 1.29 0 0 0-1.289-1.288Zm0 1.576a.288.288 0 1 1 .289-.288.288.288 0 0 1-.289.288Zm2.23-16.247a2.476 2.476 0 0 0-.139.819v3.023a.5.5 0 0 1-1 0v-3.018a3.454 3.454 0 0 1 .2-1.149.5.5 0 1 1 .944.33Zm-5.683-4.6v-.956a.5.5 0 0 1 1 0v.956a.5.5 0 0 1-1 0Zm0-3.344V10.3a.5.5 0 0 1 1 0v.956a.5.5 0 0 1-1 0ZM5.8 12.439a.5.5 0 0 1 .5-.5h.31a.5.5 0 1 1 0 1H6.3a.5.5 0 0 1-.5-.5Zm2.689 0a.5.5 0 0 1 .5-.5H9.3a.5.5 0 1 1 0 1h-.313a.5.5 0 0 1-.5-.5Zm28.259 4.785v-.45a.5.5 0 0 1 1 0v.45a.5.5 0 0 1-1 0Zm2.246.334.226-.391a.5.5 0 0 1 .865.5l-.226.391a.5.5 0 0 1-.432.249.491.491 0 0 1-.25-.067.5.5 0 0 1-.185-.682Zm1.6 2.095a.5.5 0 0 1 .183-.683l.39-.226a.5.5 0 1 1 .5.866l-.39.226a.51.51 0 0 1-.25.067.5.5 0 0 1-.44-.25Zm1.006 1.428h.45a.5.5 0 0 1 0 1h-.45a.5.5 0 0 1 0-1Zm.056 2.471a.5.5 0 1 1-.5.866l-.389-.225a.5.5 0 0 1 .5-.866ZM40.084 25.5a.5.5 0 1 1-.867.5l-.225-.39a.5.5 0 0 1 .867-.5Zm-2.337.444v.45a.5.5 0 0 1-1 0v-.45a.5.5 0 0 1 1 0Zm-3.339-8.27a.5.5 0 0 1 .865-.5l.226.39a.5.5 0 0 1-.183.683.493.493 0 0 1-.25.068.5.5 0 0 1-.432-.25ZM44 37.205h-1.736l.24-2.334h.162a.5.5 0 0 0 .5-.5v-1.7a.5.5 0 0 0-.5-.5h-2.35l1.114-2.335a.5.5 0 0 0-.9-.431l-1.319 2.766H35.77v-9.647a.508.508 0 0 0-.067-.249l-2.429-4.223v-3.6a.5.5 0 0 0-.5-.5H21.409a.5.5 0 0 0-.5.5v3.605l-.556.968a5.676 5.676 0 0 0-.206-.8l-1.708-4.92a.992.992 0 0 0 .908-.981v-1.217a1 1 0 0 0-1-1h-6.408a1 1 0 0 0-1 1v1.217a.991.991 0 0 0 .907.981l-1.7 4.915a5.455 5.455 0 0 0-.3 1.8v9.52l-2.307.4s-.008.006-.013.007a.488.488 0 0 0-.215.1.438.438 0 0 0-.041.045.483.483 0 0 0-.095.147c-.007.016-.023.026-.028.042l-.7 2.24a.4.4 0 0 0 0 .047.567.567 0 0 0-.011.1.48.48 0 0 0 .008.093.447.447 0 0 0 .027.09.527.527 0 0 0 .042.086.494.494 0 0 0 .058.072.48.48 0 0 0 .076.066c.013.009.022.023.036.031a.5.5 0 0 1 .246.435.54.54 0 0 1-.5.538c-.012 0-.024.006-.037.005a.492.492 0 0 0-.25.032c-.008 0-.016 0-.024.007a.5.5 0 0 0-.2.193c-.006.01-.018.012-.023.022s-.006.028-.012.041-.018.026-.023.042l-.873 2.786H4a.5.5 0 0 0 0 1h40a.5.5 0 0 0 0-1Zm-2.741 0h-6.244l-.241-2.334H41.5Zm.907-3.334h-8.058v-.7h8.058Zm-7.4-1.7h-1.158a.5.5 0 0 0-.5.5v1.7a.5.5 0 0 0 .5.5h.161l.241 2.334h-3.231V22.659l2-3.465 1.992 3.464Zm-20.727.755a.6.6 0 1 1-.6-.6.6.6 0 0 1 .604.597Zm-3.049-2.567 7.425-1.275v2.231ZM21.7 18.694h10.211l-1.921 3.331H19.783Zm-2.279 4.331h10.36v14.18H19.419Zm12.855-5.331H21.909v-2.738h10.365Zm-14.887-4.37 1.024 2.95h-6.538l1.024-2.95Zm-5.448-2.217h6.408v1.217h-6.41Zm-1.1 8.917a4.473 4.473 0 0 1 .25-1.476l.442-1.274h7.23l.444 1.278a4.575 4.575 0 0 1 .252 1.477v.562l-.969 1.684v.012a.5.5 0 0 0-.068.238v5.542l-7.583 1.3ZM6.689 35.046a1.542 1.542 0 0 0 1.225-1.507 1.507 1.507 0 0 0-.422-1.044l.475-1.521 4.622.6a1.6 1.6 0 1 0 2.016.259l3.814.492v4.884H6.013Z"></path>
</svg>
